<svg xmlns="http://www.w3.org/2000/svg" xmlns:xlink="http://www.w3.org/1999/xlink" width="500" zoomAndPan="magnify" viewBox="0 0 375 374.999991" height="500" preserveAspectRatio="xMidYMid meet" version="1.0"><defs><clipPath id="id1"><path d="M 40 41 L 337.5 41 L 337.5 338.246094 L 40 338.246094 Z M 40 41 " clip-rule="nonzero"/></clipPath></defs><g clip-path="url(#id1)"><path fill="#a4133c" d="M 197.136719 41.507812 C 108.796875 36.753906 37.515625 106.695312 40.640625 195.101562 C 41.023438 205.929688 42.566406 216.453125 45.144531 226.566406 C 45.144531 226.566406 45.144531 226.570312 45.148438 226.578125 C 49.820312 241.339844 56.953125 255.316406 66.347656 267.632812 C 91.625 300.769531 133.109375 321.808594 174.9375 320.421875 C 181.34375 320.207031 187.710938 319.453125 193.941406 318.15625 C 200.164062 316.855469 206.277344 315.089844 212.160156 312.78125 C 241.546875 301.324219 266.660156 275.964844 274.96875 245.183594 C 280.214844 225.769531 278.90625 204.648438 271.316406 186.03125 C 281.347656 217.300781 272.839844 253.570312 250.613281 277.742188 C 224.953125 305.636719 185.132812 315.042969 149.164062 305.238281 C 142.753906 303.507812 136.472656 301.257812 130.417969 298.492188 C 124.367188 295.71875 118.546875 292.433594 113.050781 288.667969 C 107.570312 284.890625 102.410156 280.636719 97.6875 275.949219 C 88.242188 266.585938 80.492188 255.554688 74.96875 243.582031 C 50.496094 190.808594 68.363281 126.15625 114.566406 91.507812 C 149.800781 65.078125 198.144531 58.011719 240.191406 71.140625 C 194.265625 61.808594 143.507812 75.265625 111.367188 110.15625 C 105.316406 116.726562 99.800781 123.917969 95.378906 131.6875 C 69.113281 177.800781 80.296875 243.023438 127.066406 271.484375 C 162.605469 293.113281 211.667969 289.410156 236.519531 253.449219 C 250.8125 232.78125 252.921875 204.398438 239.171875 183.027344 L 238.84375 182.511719 L 238.550781 181.972656 C 220.746094 152.167969 180.589844 150.320312 158.90625 167.164062 C 136.910156 184.257812 131.863281 212.109375 132.46875 215.222656 C 132.46875 215.21875 118.332031 183.679688 133.601562 152.542969 C 161.0625 96.554688 238.230469 103.359375 275.460938 145.113281 C 280.691406 150.976562 285.277344 157.472656 289.058594 164.375 C 292.832031 171.277344 295.835938 178.570312 297.976562 186.011719 C 299.785156 192.4375 301.050781 199.023438 301.71875 205.667969 C 305.808594 246.257812 287.625 284.367188 257.753906 309.191406 C 241.21875 322.933594 221.101562 332.597656 199.195312 336.375 C 193.800781 337.304688 188.347656 337.875 182.882812 338.117188 C 184.921875 338.203125 186.96875 338.253906 189.027344 338.253906 C 271.039062 338.253906 337.515625 271.777344 337.515625 189.773438 C 337.515625 110.484375 275.375 45.714844 197.136719 41.507812 " fill-opacity="1" fill-rule="nonzero"/></g></svg>