<svg xmlns="http://www.w3.org/2000/svg" xmlns:xlink="http://www.w3.org/1999/xlink" width="500" zoomAndPan="magnify" viewBox="0 0 375 374.999991" height="500" preserveAspectRatio="xMidYMid meet" version="1.0"><path fill="#a4133c" d="M 298.492188 213.40625 C 300.410156 243.285156 284.800781 272.628906 266.5 287.628906 C 251.546875 299.21875 234.441406 304.542969 217.519531 303.523438 C 180.976562 301.304688 150.179688 272.023438 155.203125 223.734375 C 165.1875 138.9375 275.890625 86.410156 202.804688 8.417969 C 201.253906 6.683594 190.546875 1.664062 188.871094 -0.0078125 C 215.542969 36.632812 148.921875 94.835938 128.945312 124.777344 C 103.949219 159.675781 73.6875 197.742188 75.660156 242.863281 C 79.726562 336.394531 148.027344 374.992188 224.277344 369.320312 C 264.585938 366.332031 306.269531 334.710938 317.09375 290.734375 C 323.3125 265.332031 317.929688 232.886719 298.492188 213.40625 Z M 274.332031 185.015625 C 270.445312 158.125 256.03125 121.429688 240.066406 104.398438 C 232.828125 125.605469 221.882812 135.769531 208.726562 154.773438 C 197.902344 171.992188 182.832031 185.308594 175.535156 204.859375 C 167.519531 227.738281 171.828125 255.355469 189.828125 270.949219 C 204.0625 283.320312 230.796875 283.015625 247.0625 271.484375 C 269.550781 255.527344 280.015625 224.515625 274.332031 185.015625 Z M 69.976562 198.21875 C 51.859375 113.363281 132.957031 83.003906 137.441406 34.0625 C 164.171875 71.644531 81.820312 128.300781 69.976562 198.21875 " fill-opacity="1" fill-rule="nonzero"/></svg>