<svg xmlns="http://www.w3.org/2000/svg" xmlns:xlink="http://www.w3.org/1999/xlink" width="500" zoomAndPan="magnify" viewBox="0 0 375 374.999991" height="500" preserveAspectRatio="xMidYMid meet" version="1.0"><defs><clipPath id="id1"><path d="M 41.601562 41.601562 L 333.351562 41.601562 L 333.351562 265 L 41.601562 265 Z M 41.601562 41.601562 " clip-rule="nonzero"/></clipPath><clipPath id="id2"><path d="M 172 210 L 332 210 L 332 333.351562 L 172 333.351562 Z M 172 210 " clip-rule="nonzero"/></clipPath><clipPath id="id3"><path d="M 53 182 L 333.351562 182 L 333.351562 321 L 53 321 Z M 53 182 " clip-rule="nonzero"/></clipPath></defs><g clip-path="url(#id1)"><path fill="#a4133c" d="M 45.582031 169.464844 C 46.671875 170.902344 47.769531 172.351562 48.875 173.816406 C 49.949219 175.308594 51.152344 176.722656 52.339844 178.175781 C 52.933594 178.90625 53.527344 179.636719 54.121094 180.371094 C 54.421875 180.734375 54.714844 181.113281 55.023438 181.472656 L 55.976562 182.542969 C 57.242188 183.976562 58.515625 185.425781 59.796875 186.875 C 61.144531 188.285156 62.5 189.695312 63.863281 191.117188 C 69.40625 196.726562 75.441406 202.171875 82.011719 207.230469 C 95.089844 217.179688 109.367188 224.339844 123.070312 228.898438 C 136.789062 233.5 149.945312 235.433594 161.117188 235.636719 C 166.707031 235.75 171.808594 235.445312 176.292969 234.929688 C 180.773438 234.417969 184.648438 233.71875 187.785156 232.988281 C 188.574219 232.804688 189.324219 232.652344 190.019531 232.476562 C 190.710938 232.296875 191.363281 232.121094 191.96875 231.960938 C 192.570312 231.800781 193.128906 231.65625 193.648438 231.523438 C 194.148438 231.371094 194.609375 231.230469 195.023438 231.105469 C 196.660156 230.617188 197.550781 230.351562 197.550781 230.351562 C 197.550781 230.351562 196.777344 230.867188 195.355469 231.816406 C 194.988281 232.054688 194.582031 232.320312 194.132812 232.613281 C 193.671875 232.890625 193.167969 233.191406 192.621094 233.515625 C 192.066406 233.839844 191.476562 234.1875 190.84375 234.558594 C 190.203125 234.917969 189.507812 235.273438 188.777344 235.664062 C 185.84375 237.230469 182.121094 238.9375 177.625 240.550781 C 173.132812 242.167969 167.851562 243.671875 161.867188 244.734375 C 155.882812 245.785156 149.191406 246.460938 141.984375 246.351562 C 141.078125 246.332031 140.171875 246.3125 139.253906 246.289062 C 138.335938 246.277344 137.417969 246.195312 136.484375 246.148438 C 134.617188 246.0625 132.734375 245.863281 130.816406 245.675781 C 126.996094 245.226562 123.054688 244.65625 119.074219 243.773438 C 115.089844 242.925781 111.03125 241.867188 106.96875 240.527344 C 102.894531 239.210938 98.796875 237.667969 94.730469 235.828125 C 86.582031 232.203125 78.535156 227.496094 70.949219 221.75 C 63.460938 215.996094 56.820312 209.585938 51.007812 202.945312 C 49.582031 201.257812 48.164062 199.59375 46.796875 197.917969 C 45.507812 196.195312 44.226562 194.484375 42.953125 192.789062 L 42.011719 191.519531 C 41.875 191.324219 41.742188 191.125 41.609375 190.929688 C 41.609375 190.929688 43.964844 203.859375 48.628906 213.144531 C 51.578125 219.019531 55.648438 225.25 60.808594 231.355469 C 61.128906 231.738281 61.453125 232.121094 61.777344 232.507812 C 62.097656 232.898438 62.417969 233.289062 62.777344 233.652344 C 63.476562 234.390625 64.183594 235.136719 64.894531 235.894531 C 65.25 236.269531 65.609375 236.648438 65.964844 237.027344 C 66.34375 237.386719 66.726562 237.746094 67.113281 238.109375 C 67.875 238.832031 68.644531 239.566406 69.421875 240.300781 C 70.226562 241.011719 71.066406 241.695312 71.894531 242.40625 C 72.308594 242.757812 72.722656 243.109375 73.136719 243.464844 C 73.558594 243.816406 74.015625 244.132812 74.453125 244.46875 C 75.332031 245.136719 76.214844 245.808594 77.109375 246.488281 C 78.039062 247.121094 78.976562 247.75 79.917969 248.386719 C 80.394531 248.703125 80.847656 249.046875 81.34375 249.335938 C 81.835938 249.632812 82.328125 249.929688 82.824219 250.226562 C 83.316406 250.523438 83.8125 250.824219 84.308594 251.125 L 85.054688 251.574219 L 85.828125 251.988281 C 86.859375 252.539062 87.894531 253.101562 88.9375 253.660156 C 90.007812 254.171875 91.089844 254.683594 92.171875 255.199219 C 96.546875 257.1875 101.171875 258.917969 106.011719 260.304688 C 110.847656 261.695312 115.910156 262.707031 121.09375 263.328125 C 126.269531 263.941406 131.578125 264.167969 136.847656 263.878906 C 137.5 263.828125 138.15625 263.78125 138.8125 263.730469 C 139.46875 263.675781 140.132812 263.652344 140.773438 263.554688 C 142.066406 263.382812 143.386719 263.285156 144.648438 263.035156 C 145.285156 262.929688 145.921875 262.824219 146.5625 262.714844 C 147.183594 262.578125 147.804688 262.441406 148.425781 262.304688 L 149.359375 262.105469 C 149.675781 262.035156 150.007812 261.9375 150.332031 261.855469 C 150.984375 261.675781 151.636719 261.535156 152.292969 261.332031 C 154.914062 260.609375 157.566406 259.703125 160.234375 258.707031 C 162.902344 257.703125 165.59375 256.597656 168.296875 255.363281 C 179.121094 250.457031 189.632812 244.261719 199.832031 237.980469 C 210.03125 231.675781 219.945312 225.234375 229.613281 219.226562 C 239.277344 213.207031 248.699219 207.601562 257.800781 202.734375 C 266.90625 197.863281 275.6875 193.730469 283.945312 190.484375 C 292.195312 187.21875 299.929688 184.890625 306.796875 183.320312 C 310.234375 182.546875 313.464844 181.972656 316.433594 181.527344 C 319.421875 181.121094 322.144531 180.824219 324.601562 180.675781 C 327.992188 180.457031 330.851562 180.433594 333.140625 180.484375 C 329.492188 103.167969 265.65625 41.605469 187.4375 41.605469 C 114.179688 41.605469 53.542969 95.609375 43.148438 165.980469 C 43.953125 167.132812 44.761719 168.292969 45.582031 169.464844 " fill-opacity="1" fill-rule="nonzero"/></g><g clip-path="url(#id2)"><path fill="#5b0b22" d="M 329.796875 211.957031 C 329.1875 212.480469 328.535156 213.035156 327.875 213.65625 C 326.535156 214.890625 325.027344 216.203125 323.453125 217.746094 C 322.664062 218.507812 321.828125 219.28125 320.980469 220.117188 C 320.136719 220.957031 319.261719 221.828125 318.359375 222.730469 C 314.773438 226.367188 310.800781 230.59375 306.550781 235.390625 C 302.292969 240.1875 297.75 245.542969 292.886719 251.359375 C 288.015625 257.171875 282.832031 263.441406 277.175781 269.988281 C 274.339844 273.257812 271.402344 276.597656 268.292969 279.964844 C 266.757812 281.652344 265.140625 283.328125 263.535156 285.035156 C 261.878906 286.714844 260.246094 288.429688 258.511719 290.105469 C 255.097656 293.5 251.445312 296.839844 247.628906 300.132812 C 243.800781 303.417969 239.71875 306.589844 235.449219 309.648438 C 231.144531 312.667969 226.707031 315.445312 222.183594 317.957031 C 221.042969 318.574219 219.890625 319.160156 218.746094 319.757812 C 218.179688 320.050781 217.605469 320.34375 217.035156 320.636719 C 216.453125 320.910156 215.867188 321.1875 215.285156 321.460938 C 214.707031 321.734375 214.121094 322.003906 213.542969 322.277344 C 212.960938 322.542969 212.375 322.785156 211.789062 323.039062 C 210.617188 323.535156 209.457031 324.046875 208.273438 324.488281 C 198.894531 328.203125 189.433594 330.511719 180.367188 331.777344 C 177.757812 332.148438 175.179688 332.417969 172.636719 332.605469 C 177.503906 333.09375 182.441406 333.347656 187.4375 333.347656 C 260.171875 333.347656 320.464844 280.117188 331.5 210.488281 C 330.96875 210.945312 330.402344 211.433594 329.796875 211.957031 " fill-opacity="1" fill-rule="nonzero"/></g><g clip-path="url(#id3)"><path fill="#5b0b22" d="M 134.1875 319.152344 C 139.949219 320.015625 145.804688 320.261719 151.613281 319.851562 C 164.363281 318.964844 177.226562 315.507812 189.175781 311.054688 C 193.023438 309.617188 196.863281 308.183594 200.628906 306.53125 C 201.609375 306.101562 202.570312 305.601562 203.542969 305.128906 C 204.027344 304.890625 204.519531 304.660156 205 304.410156 C 205.480469 304.152344 205.960938 303.898438 206.441406 303.644531 C 206.921875 303.394531 207.40625 303.140625 207.890625 302.882812 C 208.367188 302.613281 208.847656 302.339844 209.332031 302.066406 C 210.292969 301.519531 211.257812 300.972656 212.226562 300.421875 C 216.066406 298.128906 219.886719 295.648438 223.6875 292.984375 C 227.46875 290.273438 231.167969 287.507812 234.75 284.617188 C 238.324219 281.71875 241.832031 278.804688 245.226562 275.808594 C 246.941406 274.339844 248.605469 272.808594 250.28125 271.339844 C 251.9375 269.824219 253.597656 268.359375 255.21875 266.859375 C 258.480469 263.890625 261.667969 260.917969 264.800781 258.027344 C 271.066406 252.230469 277.109375 246.675781 282.933594 241.597656 C 288.753906 236.515625 294.347656 231.90625 299.632812 227.902344 C 304.910156 223.890625 309.875 220.488281 314.335938 217.683594 C 315.457031 217 316.542969 216.335938 317.585938 215.691406 C 318.640625 215.066406 319.675781 214.496094 320.648438 213.9375 C 322.59375 212.800781 324.445312 211.878906 326.078125 211.023438 C 326.890625 210.589844 327.679688 210.21875 328.421875 209.871094 C 329.160156 209.519531 329.847656 209.195312 330.496094 208.890625 C 330.960938 208.664062 331.402344 208.46875 331.824219 208.28125 C 332.800781 201.484375 333.3125 194.539062 333.3125 187.476562 C 333.3125 185.789062 333.269531 184.109375 333.214844 182.4375 C 331.070312 183.007812 328.445312 183.773438 325.414062 184.800781 C 323.167969 185.546875 320.714844 186.488281 318.058594 187.554688 C 315.414062 188.660156 312.582031 189.910156 309.59375 191.367188 C 303.625 194.289062 297.042969 197.960938 290.035156 202.484375 C 283.019531 206.984375 275.566406 212.28125 267.695312 218.242188 C 259.816406 224.195312 251.523438 230.8125 242.660156 237.808594 C 233.792969 244.792969 224.371094 252.179688 214.019531 259.46875 C 208.84375 263.109375 203.417969 266.710938 197.6875 270.175781 C 194.8125 271.898438 191.863281 273.589844 188.824219 275.21875 C 185.777344 276.84375 182.632812 278.402344 179.390625 279.875 C 176.152344 281.355469 172.820312 282.699219 169.433594 283.910156 C 166.039062 285.117188 162.589844 286.199219 159.050781 287.066406 C 158.175781 287.300781 157.273438 287.480469 156.390625 287.683594 C 155.941406 287.78125 155.511719 287.886719 155.046875 287.972656 L 153.65625 288.222656 C 152.726562 288.386719 151.800781 288.546875 150.878906 288.710938 C 149.960938 288.820312 149.042969 288.933594 148.128906 289.046875 C 146.296875 289.300781 144.5 289.371094 142.699219 289.5 C 141.796875 289.574219 140.910156 289.566406 140.019531 289.585938 C 139.128906 289.597656 138.242188 289.613281 137.359375 289.625 C 130.308594 289.578125 123.507812 288.765625 117 287.40625 C 110.5 286.039062 104.289062 284.128906 98.464844 281.714844 C 92.636719 279.3125 87.183594 276.453125 82.160156 273.28125 C 80.914062 272.460938 79.679688 271.660156 78.472656 270.839844 C 77.296875 269.96875 76.128906 269.105469 74.96875 268.25 L 74.109375 267.605469 L 73.28125 266.925781 C 72.734375 266.472656 72.1875 266.015625 71.644531 265.5625 C 71.101562 265.109375 70.566406 264.660156 70.027344 264.207031 C 69.488281 263.765625 68.996094 263.265625 68.484375 262.800781 C 67.476562 261.851562 66.480469 260.90625 65.492188 259.972656 C 64.558594 258.984375 63.632812 258.003906 62.714844 257.035156 C 62.265625 256.546875 61.796875 256.078125 61.371094 255.574219 C 60.945312 255.070312 60.523438 254.566406 60.105469 254.066406 C 59.277344 253.058594 58.441406 252.082031 57.648438 251.082031 C 56.898438 250.058594 56.15625 249.042969 55.417969 248.03125 C 55.050781 247.53125 54.6875 247.03125 54.328125 246.53125 C 54.003906 246.050781 53.699219 245.558594 53.386719 245.074219 C 55.175781 249.011719 59.296875 257.550781 62.855469 263.386719 C 66.488281 269.335938 70.550781 275.019531 74.992188 280.390625 C 84.652344 292.066406 95.652344 303.957031 109.222656 311.042969 C 117.015625 315.109375 125.496094 317.839844 134.1875 319.152344 " fill-opacity="1" fill-rule="nonzero"/></g></svg>