<?xml version="1.0" standalone="no"?>
<!DOCTYPE svg PUBLIC "-//W3C//DTD SVG 20010904//EN"
 "http://www.w3.org/TR/2001/REC-SVG-20010904/DTD/svg10.dtd">
<svg version="1.0" xmlns="http://www.w3.org/2000/svg"
 width="512.000000pt" height="466.000000pt" viewBox="0 0 512.000000 466.000000"
 preserveAspectRatio="xMidYMid meet">

<g transform="translate(0.000000,466.000000) scale(0.100000,-0.100000)"
fill="#000000" stroke="none">
<path d="M2208 4631 c-115 -37 -213 -112 -280 -215 -110 -170 -109 -398 3
-565 100 -150 252 -231 435 -231 391 0 636 415 451 764 -62 118 -201 226 -327
255 -72 17 -217 12 -282 -8z"/>
<path d="M1120 3605 c-201 -35 -384 -69 -408 -76 -81 -22 -119 -69 -268 -334
-77 -135 -144 -245 -150 -245 -6 0 -57 21 -113 46 -56 25 -104 44 -106 42 -8
-8 -73 -384 -67 -390 4 -4 213 -99 465 -211 252 -112 460 -207 463 -209 3 -3
-88 -410 -202 -904 -227 -988 -222 -959 -169 -1050 49 -84 143 -131 241 -121
84 9 159 58 195 129 11 22 94 362 185 756 90 394 167 725 172 734 5 13 70 -82
251 -370 l244 -386 -17 -341 c-12 -256 -14 -350 -5 -379 54 -192 298 -248 429
-100 59 68 60 76 82 512 17 353 18 409 6 447 -8 23 -95 169 -192 324 -98 155
-177 283 -175 285 2 2 312 -133 689 -300 377 -167 689 -305 693 -307 5 -1 -24
-38 -63 -82 -101 -112 -226 -281 -313 -421 -93 -150 -280 -486 -298 -537 -13
-37 -12 -40 8 -56 18 -15 54 -19 250 -25 125 -4 347 -11 493 -16 146 -5 570
-10 943 -10 l679 0 30 31 c30 29 31 33 25 97 -12 139 -128 565 -230 848 -231
634 -468 965 -693 965 l-58 0 -71 -73 c-39 -40 -145 -151 -237 -247 l-166
-174 -336 148 c-233 103 -336 154 -336 164 0 9 -65 315 -145 679 -156 717
-159 728 -233 777 -21 14 -256 118 -522 232 -425 181 -492 207 -545 209 -40 2
-180 -18 -425 -61z m135 -746 c-69 -145 -129 -267 -133 -270 -8 -7 -352 142
-352 154 0 6 163 299 176 316 6 7 429 76 432 70 2 -4 -54 -125 -123 -270z
m1096 -507 c39 -183 69 -335 66 -338 -10 -10 -362 154 -359 167 2 7 49 132
105 278 74 195 103 259 108 245 5 -10 40 -169 80 -352z"/>
</g>
</svg>
